<svg xmlns="http://www.w3.org/2000/svg" xmlns:xlink="http://www.w3.org/1999/xlink" xmlns:lucid="lucid" width="688.67" height="722"><g transform="translate(-505.66666666666697 -139.5)" lucid:page-tab-id="0_0"><path d="M500 0h1000v1000H500z" fill="#fff"/><path d="M760 168a8 8 0 0 1 8-8h164a8 8 0 0 1 8 8v44a8 8 0 0 1-8 8H768a8 8 0 0 1-8-8z" stroke="#3a414a" fill="#fff"/><use xlink:href="#a" transform="matrix(1,0,0,1,772,172) translate(53.061728395061735 22.488888888888887)"/><path d="M675 268a8 8 0 0 1 8-8h334a8 8 0 0 1 8 8v44a8 8 0 0 1-8 8H683a8 8 0 0 1-8-8z" stroke="#3a414a" fill="#fff"/><use xlink:href="#b" transform="matrix(1,0,0,1,687,272) translate(85.87839506172841 22.488888888888887)"/><use xlink:href="#c" transform="matrix(1,0,0,1,687,272) translate(158.01234567901236 22.488888888888887)"/><path d="M526.17 428a8 8 0 0 1 8-8h79a8 8 0 0 1 8 8v62a8 8 0 0 1-8 8h-79a8 8 0 0 1-8-8z" stroke="#3a414a" fill="#fff"/><use xlink:href="#d" transform="matrix(1,0,0,1,538.166666666667,432) translate(1.864506172839512 31.488888888888887)"/><use xlink:href="#e" transform="matrix(1,0,0,1,538.166666666667,432) translate(56.66635802469135 31.488888888888887)"/><path d="M664.33 428a8 8 0 0 1 8-8h79a8 8 0 0 1 8 8v62a8 8 0 0 1-8 8h-79a8 8 0 0 1-8-8z" stroke="#3a414a" fill="#fff"/><use xlink:href="#d" transform="matrix(1,0,0,1,676.3333333333335,432) translate(1.864506172839512 31.488888888888887)"/><use xlink:href="#f" transform="matrix(1,0,0,1,676.3333333333335,432) translate(56.66635802469135 31.488888888888887)"/><path d="M940.67 431a8 8 0 0 1 8-8h79a8 8 0 0 1 8 8v62a8 8 0 0 1-8 8h-79a8 8 0 0 1-8-8z" stroke="#3a414a" fill="#fff"/><use xlink:href="#d" transform="matrix(1,0,0,1,952.6666666666665,435) translate(1.864506172839512 31.488888888888887)"/><use xlink:href="#g" transform="matrix(1,0,0,1,952.6666666666665,435) translate(56.66635802469135 31.488888888888887)"/><path d="M802.5 428a8 8 0 0 1 8-8h79a8 8 0 0 1 8 8v62a8 8 0 0 1-8 8h-79a8 8 0 0 1-8-8z" stroke="#3a414a" fill="#fff"/><use xlink:href="#d" transform="matrix(1,0,0,1,814.5,432) translate(1.864506172839512 31.488888888888887)"/><use xlink:href="#h" transform="matrix(1,0,0,1,814.5,432) translate(56.66635802469135 31.488888888888887)"/><path d="M1078.83 431a8 8 0 0 1 8-8h79a8 8 0 0 1 8 8v62a8 8 0 0 1-8 8h-79a8 8 0 0 1-8-8z" stroke="#3a414a" fill="#fff"/><use xlink:href="#d" transform="matrix(1,0,0,1,1090.833333333333,435) translate(1.864506172839512 31.488888888888887)"/><use xlink:href="#i" transform="matrix(1,0,0,1,1090.833333333333,435) translate(56.66635802469135 31.488888888888887)"/><path d="M573.67 403.12V382a12 12 0 0 1 12-12H838a12 12 0 0 0 12-12v-37" stroke="#3a414a" fill="none"/><path d="M573.67 417.88l-4.64-14.26h9.27z" stroke="#3a414a" fill="#3a414a"/><path d="M850.5 321h-1v-.5h1z" stroke="#3a414a" stroke-width=".05" fill="#3a414a"/><path d="M850 403.12V321" stroke="#3a414a" fill="none"/><path d="M850 417.88l-4.63-14.26h9.26z" stroke="#3a414a" fill="#3a414a"/><path d="M850 321v-.5M850 321v37a12 12 0 0 1-12 12H723.83a12 12 0 0 0-12 12v21.12" stroke="#3a414a" fill="none"/><path d="M850.5 321h-1v-.5h1z" stroke="#3a414a" stroke-width=".05" fill="#3a414a"/><path d="M711.83 417.88l-4.63-14.26h9.27z" stroke="#3a414a" fill="#3a414a"/><path d="M850 321v38.5a12 12 0 0 0 12 12h114.17a12 12 0 0 1 12 12v22.62" stroke="#3a414a" fill="none"/><path d="M850.5 321h-1v-.5h1z" stroke="#3a414a" stroke-width=".05" fill="#3a414a"/><path d="M988.17 420.88l-4.64-14.26h9.27z" stroke="#3a414a" fill="#3a414a"/><path d="M850 321v38.5a12 12 0 0 0 12 12h252.33a12 12 0 0 1 12 12v22.62" stroke="#3a414a" fill="none"/><path d="M850.5 321h-1v-.5h1z" stroke="#3a414a" stroke-width=".05" fill="#3a414a"/><path d="M1126.33 420.88l-4.63-14.26h9.27z" stroke="#3a414a" fill="#3a414a"/><path d="M759.33 606a8 8 0 0 1 8-8H932a8 8 0 0 1 8 8v46a8 8 0 0 1-8 8H767.33a8 8 0 0 1-8-8z" stroke="#3a414a" fill="#fff"/><use xlink:href="#j" transform="matrix(1,0,0,1,771.3333333333335,610) translate(38.06882716049384 23.488888888888887)"/><path d="M526.17 768a8 8 0 0 1 8-8h79a8 8 0 0 1 8 8v62a8 8 0 0 1-8 8h-79a8 8 0 0 1-8-8z" stroke="#3a414a" fill="#fff"/><use xlink:href="#k" transform="matrix(1,0,0,1,538.166666666667,772) translate(2.4879629629629676 31.488888888888887)"/><use xlink:href="#e" transform="matrix(1,0,0,1,538.166666666667,772) translate(56.04290123456789 31.488888888888887)"/><path d="M664.33 768a8 8 0 0 1 8-8h79a8 8 0 0 1 8 8v62a8 8 0 0 1-8 8h-79a8 8 0 0 1-8-8z" stroke="#3a414a" fill="#fff"/><use xlink:href="#k" transform="matrix(1,0,0,1,676.3333333333335,772) translate(2.4879629629629676 31.488888888888887)"/><use xlink:href="#f" transform="matrix(1,0,0,1,676.3333333333335,772) translate(56.04290123456789 31.488888888888887)"/><path d="M940.67 771a8 8 0 0 1 8-8h79a8 8 0 0 1 8 8v62a8 8 0 0 1-8 8h-79a8 8 0 0 1-8-8z" stroke="#3a414a" fill="#fff"/><use xlink:href="#k" transform="matrix(1,0,0,1,952.6666666666665,775) translate(2.4879629629629676 31.488888888888887)"/><use xlink:href="#g" transform="matrix(1,0,0,1,952.6666666666665,775) translate(56.04290123456789 31.488888888888887)"/><path d="M802.5 768a8 8 0 0 1 8-8h79a8 8 0 0 1 8 8v62a8 8 0 0 1-8 8h-79a8 8 0 0 1-8-8z" stroke="#3a414a" fill="#fff"/><use xlink:href="#k" transform="matrix(1,0,0,1,814.5,772) translate(2.4879629629629676 31.488888888888887)"/><use xlink:href="#h" transform="matrix(1,0,0,1,814.5,772) translate(56.04290123456789 31.488888888888887)"/><path d="M1078.83 771a8 8 0 0 1 8-8h79a8 8 0 0 1 8 8v62a8 8 0 0 1-8 8h-79a8 8 0 0 1-8-8z" stroke="#3a414a" fill="#fff"/><use xlink:href="#k" transform="matrix(1,0,0,1,1090.833333333333,775) translate(2.4879629629629676 31.488888888888887)"/><use xlink:href="#i" transform="matrix(1,0,0,1,1090.833333333333,775) translate(56.04290123456789 31.488888888888887)"/><path d="M573.67 499v37a12 12 0 0 0 12 12h252a12 12 0 0 1 12 12v21.12" stroke="#3a414a" fill="none"/><path d="M574.17 499h-1v-.5h1z" stroke="#3a414a" stroke-width=".05" fill="#3a414a"/><path d="M849.67 595.88l-4.64-14.26h9.27z" stroke="#3a414a" fill="#3a414a"/><path d="M711.83 499v37a12 12 0 0 0 12 12h113.84a12 12 0 0 1 12 12v21.12" stroke="#3a414a" fill="none"/><path d="M712.33 499h-1v-.5h1z" stroke="#3a414a" stroke-width=".05" fill="#3a414a"/><path d="M849.67 595.88l-4.64-14.26h9.27z" stroke="#3a414a" fill="#3a414a"/><path d="M850 499v82.12" stroke="#3a414a" fill="none"/><path d="M850.5 499h-1v-.5h1z" stroke="#3a414a" stroke-width=".05" fill="#3a414a"/><path d="M850 595.88l-4.63-14.26h9.26z" stroke="#3a414a" fill="#3a414a"/><path d="M988.17 502v35.5a12 12 0 0 1-12 12h-114.5a12 12 0 0 0-12 12v19.62" stroke="#3a414a" fill="none"/><path d="M988.67 502h-1v-.5h1z" stroke="#3a414a" stroke-width=".05" fill="#3a414a"/><path d="M849.67 595.88l-4.64-14.26h9.27z" stroke="#3a414a" fill="#3a414a"/><path d="M1126.33 502v35.5a12 12 0 0 1-12 12H861.67a12 12 0 0 0-12 12v19.62" stroke="#3a414a" fill="none"/><path d="M1126.83 502h-1v-.5h1z" stroke="#3a414a" stroke-width=".05" fill="#3a414a"/><path d="M849.67 595.88l-4.64-14.26h9.27z" stroke="#3a414a" fill="#3a414a"/><path d="M849.67 661v37a12 12 0 0 1-12 12h-252a12 12 0 0 0-12 12v21.12" stroke="#3a414a" fill="none"/><path d="M850.17 661h-1v-.5h1z" stroke="#3a414a" stroke-width=".05" fill="#3a414a"/><path d="M573.67 757.88l-4.64-14.26h9.27z" stroke="#3a414a" fill="#3a414a"/><path d="M849.67 661v37a12 12 0 0 1-12 12H723.83a12 12 0 0 0-12 12v21.12" stroke="#3a414a" fill="none"/><path d="M850.17 661h-1v-.5h1z" stroke="#3a414a" stroke-width=".05" fill="#3a414a"/><path d="M711.83 757.88l-4.63-14.26h9.27z" stroke="#3a414a" fill="#3a414a"/><path d="M849.67 661v82.12" stroke="#3a414a" fill="none"/><path d="M850.17 661h-1v-.5h1z" stroke="#3a414a" stroke-width=".05" fill="#3a414a"/><path d="M849.67 757.88l-4.64-14.26h9.27z" stroke="#3a414a" fill="#3a414a"/><path d="M849.67 661v38.5a12 12 0 0 0 12 12h114.5a12 12 0 0 1 12 12v22.62" stroke="#3a414a" fill="none"/><path d="M850.17 661h-1v-.5h1z" stroke="#3a414a" stroke-width=".05" fill="#3a414a"/><path d="M988.17 760.88l-4.64-14.26h9.27z" stroke="#3a414a" fill="#3a414a"/><path d="M849.67 661v38.5a12 12 0 0 0 12 12h252.66a12 12 0 0 1 12 12v22.62" stroke="#3a414a" fill="none"/><path d="M850.17 661h-1v-.5h1z" stroke="#3a414a" stroke-width=".05" fill="#3a414a"/><path d="M1126.33 760.88l-4.63-14.26h9.27z" stroke="#3a414a" fill="#3a414a"/><path d="M850 221v22.12" stroke="#3a414a" fill="none"/><path d="M850.5 221h-1v-.5h1z" stroke="#3a414a" stroke-width=".05" fill="#3a414a"/><path d="M850 257.88l-4.63-14.26h9.26z" stroke="#3a414a" fill="#3a414a"/><defs><path fill="#3a414a" d="M33 0v-248h34V0H33" id="l"/><path fill="#3a414a" d="M117-194c89-4 53 116 60 194h-32v-121c0-31-8-49-39-48C34-167 62-67 57 0H25l-1-190h30c1 10-1 24 2 32 11-22 29-35 61-36" id="m"/><path fill="#3a414a" d="M115-194c55 1 70 41 70 98S169 2 115 4C84 4 66-9 55-30l1 105H24l-1-265h31l2 30c10-21 28-34 59-34zm-8 174c40 0 45-34 45-75s-6-73-45-74c-42 0-51 32-51 76 0 43 10 73 51 73" id="n"/><path fill="#3a414a" d="M84 4C-5 8 30-112 23-190h32v120c0 31 7 50 39 49 72-2 45-101 50-169h31l1 190h-30c-1-10 1-25-2-33-11 22-28 36-60 37" id="o"/><path fill="#3a414a" d="M59-47c-2 24 18 29 38 22v24C64 9 27 4 27-40v-127H5v-23h24l9-43h21v43h35v23H59v120" id="p"/><g id="a"><use transform="matrix(0.06234567901234567,0,0,0.06234567901234567,0,0)" xlink:href="#l"/><use transform="matrix(0.06234567901234567,0,0,0.06234567901234567,6.234567901234566,0)" xlink:href="#m"/><use transform="matrix(0.06234567901234567,0,0,0.06234567901234567,18.7037037037037,0)" xlink:href="#n"/><use transform="matrix(0.06234567901234567,0,0,0.06234567901234567,31.17283950617283,0)" xlink:href="#o"/><use transform="matrix(0.06234567901234567,0,0,0.06234567901234567,43.64197530864196,0)" xlink:href="#p"/></g><path fill="#3a414a" d="M190 0L58-211 59 0H30v-248h39L202-35l-2-213h31V0h-41" id="q"/><path fill="#3a414a" d="M100-194c63 0 86 42 84 106H49c0 40 14 67 53 68 26 1 43-12 49-29l28 8c-11 28-37 45-77 45C44 4 14-33 15-96c1-61 26-98 85-98zm52 81c6-60-76-77-97-28-3 7-6 17-6 28h103" id="r"/><path fill="#3a414a" d="M114-163C36-179 61-72 57 0H25l-1-190h30c1 12-1 29 2 39 6-27 23-49 58-41v29" id="s"/><path fill="#3a414a" d="M141-36C126-15 110 5 73 4 37 3 15-17 15-53c-1-64 63-63 125-63 3-35-9-54-41-54-24 1-41 7-42 31l-33-3c5-37 33-52 76-52 45 0 72 20 72 64v82c-1 20 7 32 28 27v20c-31 9-61-2-59-35zM48-53c0 20 12 33 32 33 41-3 63-29 60-74-43 2-92-5-92 41" id="t"/><path fill="#3a414a" d="M24 0v-261h32V0H24" id="u"/><g id="b"><use transform="matrix(0.06234567901234567,0,0,0.06234567901234567,0,0)" xlink:href="#q"/><use transform="matrix(0.06234567901234567,0,0,0.06234567901234567,16.147530864197527,0)" xlink:href="#r"/><use transform="matrix(0.06234567901234567,0,0,0.06234567901234567,28.61666666666666,0)" xlink:href="#s"/><use transform="matrix(0.06234567901234567,0,0,0.06234567901234567,36.035802469135795,0)" xlink:href="#o"/><use transform="matrix(0.06234567901234567,0,0,0.06234567901234567,48.50493827160493,0)" xlink:href="#t"/><use transform="matrix(0.06234567901234567,0,0,0.06234567901234567,60.97407407407406,0)" xlink:href="#u"/></g><path fill="#3a414a" d="M206 0h-36l-40-164L89 0H53L-1-190h32L70-26l43-164h34l41 164 42-164h31" id="v"/><path fill="#3a414a" d="M100-194c62-1 85 37 85 99 1 63-27 99-86 99S16-35 15-95c0-66 28-99 85-99zM99-20c44 1 53-31 53-75 0-43-8-75-51-75s-53 32-53 75 10 74 51 75" id="w"/><path fill="#3a414a" d="M143 0L79-87 56-68V0H24v-261h32v163l83-92h37l-77 82L181 0h-38" id="x"/><g id="c"><use transform="matrix(0.06234567901234567,0,0,0.06234567901234567,0,0)" xlink:href="#q"/><use transform="matrix(0.06234567901234567,0,0,0.06234567901234567,16.147530864197527,0)" xlink:href="#r"/><use transform="matrix(0.06234567901234567,0,0,0.06234567901234567,28.61666666666666,0)" xlink:href="#p"/><use transform="matrix(0.06234567901234567,0,0,0.06234567901234567,34.85123456790123,0)" xlink:href="#v"/><use transform="matrix(0.06234567901234567,0,0,0.06234567901234567,50.99876543209876,0)" xlink:href="#w"/><use transform="matrix(0.06234567901234567,0,0,0.06234567901234567,63.46790123456789,0)" xlink:href="#s"/><use transform="matrix(0.06234567901234567,0,0,0.06234567901234567,70.88703703703702,0)" xlink:href="#x"/></g><path fill="#3a414a" d="M30 0v-248h33v221h125V0H30" id="y"/><path fill="#3a414a" d="M177-190C167-65 218 103 67 71c-23-6-38-20-44-43l32-5c15 47 100 32 89-28v-30C133-14 115 1 83 1 29 1 15-40 15-95c0-56 16-97 71-98 29-1 48 16 59 35 1-10 0-23 2-32h30zM94-22c36 0 50-32 50-73 0-42-14-75-50-75-39 0-46 34-46 75s6 73 46 73" id="z"/><path fill="#3a414a" d="M24-231v-30h32v30H24zM24 0v-190h32V0H24" id="A"/><g id="d"><use transform="matrix(0.06234567901234567,0,0,0.06234567901234567,0,0)" xlink:href="#y"/><use transform="matrix(0.06234567901234567,0,0,0.06234567901234567,12.469135802469133,0)" xlink:href="#w"/><use transform="matrix(0.06234567901234567,0,0,0.06234567901234567,24.938271604938265,0)" xlink:href="#z"/><use transform="matrix(0.06234567901234567,0,0,0.06234567901234567,37.4074074074074,0)" xlink:href="#A"/><use transform="matrix(0.06234567901234567,0,0,0.06234567901234567,42.332716049382704,0)" xlink:href="#p"/></g><path fill="#3a414a" d="M27 0v-27h64v-190l-56 39v-29l58-41h29v221h61V0H27" id="B"/><use transform="matrix(0.06234567901234567,0,0,0.06234567901234567,0,0)" xlink:href="#B" id="e"/><path fill="#3a414a" d="M101-251c82-7 93 87 43 132L82-64C71-53 59-42 53-27h129V0H18c2-99 128-94 128-182 0-28-16-43-45-43s-46 15-49 41l-32-3c6-41 34-60 81-64" id="C"/><use transform="matrix(0.06234567901234567,0,0,0.06234567901234567,0,0)" xlink:href="#C" id="f"/><path fill="#3a414a" d="M155-56V0h-30v-56H8v-25l114-167h33v167h35v25h-35zm-30-156c-27 46-58 90-88 131h88v-131" id="D"/><use transform="matrix(0.06234567901234567,0,0,0.06234567901234567,0,0)" xlink:href="#D" id="g"/><path fill="#3a414a" d="M126-127c33 6 58 20 58 59 0 88-139 92-164 29-3-8-5-16-6-25l32-3c6 27 21 44 54 44 32 0 52-15 52-46 0-38-36-46-79-43v-28c39 1 72-4 72-42 0-27-17-43-46-43-28 0-47 15-49 41l-32-3c6-42 35-63 81-64 48-1 79 21 79 65 0 36-21 52-52 59" id="E"/><use transform="matrix(0.06234567901234567,0,0,0.06234567901234567,0,0)" xlink:href="#E" id="h"/><path fill="#3a414a" d="M54-142c48-35 137-8 131 61C196 18 31 33 14-55l32-4c7 23 22 37 52 37 35-1 51-22 54-58 4-55-73-65-99-34H22l8-134h141v27H59" id="F"/><use transform="matrix(0.06234567901234567,0,0,0.06234567901234567,0,0)" xlink:href="#F" id="i"/><path fill="#3a414a" d="M185-189c-5-48-123-54-124 2 14 75 158 14 163 119 3 78-121 87-175 55-17-10-28-26-33-46l33-7c5 56 141 63 141-1 0-78-155-14-162-118-5-82 145-84 179-34 5 7 8 16 11 25" id="G"/><path fill="#3a414a" d="M210-169c-67 3-38 105-44 169h-31v-121c0-29-5-50-35-48C34-165 62-65 56 0H25l-1-190h30c1 10-1 24 2 32 10-44 99-50 107 0 11-21 27-35 58-36 85-2 47 119 55 194h-31v-121c0-29-5-49-35-48" id="H"/><path fill="#3a414a" d="M85-194c31 0 48 13 60 33l-1-100h32l1 261h-30c-2-10 0-23-3-31C134-8 116 4 85 4 32 4 16-35 15-94c0-66 23-100 70-100zm9 24c-40 0-46 34-46 75 0 40 6 74 45 74 42 0 51-32 51-76 0-42-9-74-50-73" id="I"/><g id="j"><use transform="matrix(0.06234567901234567,0,0,0.06234567901234567,0,0)" xlink:href="#G"/><use transform="matrix(0.06234567901234567,0,0,0.06234567901234567,14.96296296296296,0)" xlink:href="#A"/><use transform="matrix(0.06234567901234567,0,0,0.06234567901234567,19.888271604938268,0)" xlink:href="#z"/><use transform="matrix(0.06234567901234567,0,0,0.06234567901234567,32.3574074074074,0)" xlink:href="#H"/><use transform="matrix(0.06234567901234567,0,0,0.06234567901234567,50.99876543209875,0)" xlink:href="#w"/><use transform="matrix(0.06234567901234567,0,0,0.06234567901234567,63.46790123456788,0)" xlink:href="#A"/><use transform="matrix(0.06234567901234567,0,0,0.06234567901234567,68.3932098765432,0)" xlink:href="#I"/></g><path fill="#3a414a" d="M30-248c87 1 191-15 191 75 0 78-77 80-158 76V0H30v-248zm33 125c57 0 124 11 124-50 0-59-68-47-124-48v98" id="J"/><path fill="#3a414a" d="M115-194c53 0 69 39 70 98 0 66-23 100-70 100C84 3 66-7 56-30L54 0H23l1-261h32v101c10-23 28-34 59-34zm-8 174c40 0 45-34 45-75 0-40-5-75-45-74-42 0-51 32-51 76 0 43 10 73 51 73" id="K"/><g id="k"><use transform="matrix(0.06234567901234567,0,0,0.06234567901234567,0,0)" xlink:href="#J"/><use transform="matrix(0.06234567901234567,0,0,0.06234567901234567,14.96296296296296,0)" xlink:href="#s"/><use transform="matrix(0.06234567901234567,0,0,0.06234567901234567,22.382098765432094,0)" xlink:href="#w"/><use transform="matrix(0.06234567901234567,0,0,0.06234567901234567,34.85123456790123,0)" xlink:href="#K"/></g></defs></g></svg>